<svg version="1.1"
      xmlns="http://www.w3.org/2000/svg"
      xmlns:xlink="http://www.w3.org/1999/xlink"  id="snapshot-71800" width="250" height="250" viewBox="0 0 250 250"><desc>This image was made on Patterninja.com</desc><defs>
<!-- image 39403 -->
<g id="transformed-39403" data-image="39403" transform="translate(100.9, -36.480000000000004) rotate(0, 124.5, 125)"><g><svg version="1.1" width="249px" height="250px" viewBox="0 0 249 250"><g id="original-39403"><svg xmlns="http://www.w3.org/2000/svg" viewBox="0 0 3304.82 3304.85" xmlns:xlink="http://www.w3.org/1999/xlink" version="1.1" preserveAspectRatio="xMidYMid meet">
  <defs>
    <clipPath id="a"/>
    <clipPath id="b">
      <path d="M1652.41 2857.84c-664.664 0-1205.398-540.75-1205.398-1205.41 0-664.68 540.75-1205.418 1205.398-1205.418 664.649 0 1205.399 540.758 1205.399 1205.418 0 664.629-540.75 1205.41-1205.399 1205.41" clip-rule="evenodd" fill="rgba(0, 0, 0, 1)" stroke="none"/>
    </clipPath>
    <clipPath id="d">
      <path d="M686 686h1011v1011H686zm0 0" fill="rgba(0, 0, 0, 1)" stroke="none"/>
    </clipPath>
    <clipPath id="e">
      <path d="M730.398 1696.41c-24.293 0-43.98-19.7-43.98-43.98 0-532.66 433.344-966 965.992-966 24.3 0 43.98 19.691 43.98 43.968 0 24.293-19.68 43.98-43.98 43.98-484.148 0-878.027 393.892-878.027 878.052 0 24.28-19.715 43.98-43.985 43.98" clip-rule="evenodd" fill="rgba(0, 0, 0, 1)" stroke="none"/>
    </clipPath>
    <clipPath id="g">
      <path d="M1608 0h89v319h-89zm0 0" fill="rgba(0, 0, 0, 1)" stroke="none"/>
    </clipPath>
    <clipPath id="h">
      <path d="M1652.41 318.691c-24.289 0-43.969-19.703-43.969-43.98V43.98c0-24.29 19.68-43.981 43.97-43.981 24.3 0 43.98 19.691 43.98 43.98v230.73c0 24.302-19.68 43.981-43.98 43.981" clip-rule="evenodd" fill="rgba(0, 0, 0, 1)" stroke="none"/>
    </clipPath>
    <clipPath id="j">
      <path d="M2297 215h204v289h-204zm0 0" fill="rgba(0, 0, 0, 1)" stroke="none"/>
    </clipPath>
    <clipPath id="k">
      <path d="M2341.25 503.262c-7.43 0-15.02-1.91-21.95-5.89-21.038-12.161-28.241-39.071-16.081-60.083l115.332-199.8c12.16-21 38.98-28.25 60.097-16.098 21.043 12.148 28.23 39.07 16.102 60.078l-115.36 199.8c-8.171 14.11-22.93 21.993-38.14 21.993" clip-rule="evenodd" fill="rgba(0, 0, 0, 1)" stroke="none"/>
    </clipPath>
    <clipPath id="m">
      <path d="M2801 804h289v204h-289zm0 0" fill="rgba(0, 0, 0, 1)" stroke="none"/>
    </clipPath>
    <clipPath id="n">
      <path d="M2845.629 1007.54c-15.207 0-30.02-7.868-38.168-21.981-12.133-21.028-4.91-47.95 16.098-60.09l199.832-115.36c21.09-12.14 47.91-4.91 60.07 16.11 12.16 21.02 4.91 47.93-16.102 60.082l-199.8 115.36c-6.93 3.968-14.5 5.878-21.93 5.878" clip-rule="evenodd" fill="rgba(0, 0, 0, 1)" stroke="none"/>
    </clipPath>
    <clipPath id="p">
      <path d="M2986 1608h318.82v89H2986zm0 0" fill="rgba(0, 0, 0, 1)" stroke="none"/>
    </clipPath>
    <clipPath id="q">
      <path d="M3260.828 1696.41h-230.687c-24.29 0-43.993-19.7-43.993-43.98 0-24.309 19.704-43.98 43.993-43.98h230.687c24.3 0 43.992 19.671 43.992 43.98 0 24.28-19.672 43.98-43.992 43.98" clip-rule="evenodd" fill="rgba(0, 0, 0, 1)" stroke="none"/>
    </clipPath>
    <clipPath id="s">
      <path d="M2801 2297h289v204h-289zm0 0" fill="rgba(0, 0, 0, 1)" stroke="none"/>
    </clipPath>
    <clipPath id="t">
      <path d="M3045.32 2500.629c-7.43 0-15.02-1.918-21.93-5.91L2823.56 2379.37c-21.028-12.14-28.23-39.043-16.098-60.07 12.168-21.04 38.98-28.242 60.098-16.102l199.8 115.332c21.04 12.16 28.262 39.047 16.102 60.09-8.14 14.129-22.93 22.008-38.14 22.008" clip-rule="evenodd" fill="rgba(0, 0, 0, 1)" stroke="none"/>
    </clipPath>
    <clipPath id="v">
      <path d="M2297 2801h204v289h-204zm0 0" fill="rgba(0, 0, 0, 1)" stroke="none"/>
    </clipPath>
    <clipPath id="w">
      <path d="M2456.691 3089.398c-15.21 0-29.992-7.91-38.14-22.039l-115.352-199.8c-12.14-21.04-4.918-47.93 16.102-60.07 21.11-12.16 47.93-4.91 60.09 16.1l115.328 199.802c12.16 21.039 4.941 47.937-16.098 60.07-6.93 3.988-14.473 5.937-21.93 5.937" clip-rule="evenodd" fill="rgba(0, 0, 0, 1)" stroke="none"/>
    </clipPath>
    <clipPath id="y">
      <path d="M1608 2986h89v318.852h-89zm0 0" fill="rgba(0, 0, 0, 1)" stroke="none"/>
    </clipPath>
    <clipPath id="z">
      <path d="M1652.41 3304.852c-24.289 0-43.969-19.704-43.969-43.993v-230.718c0-24.29 19.68-43.993 43.97-43.993 24.3 0 43.98 19.704 43.98 43.993v230.718c0 24.29-19.68 43.993-43.98 43.993" clip-rule="evenodd" fill="rgba(0, 0, 0, 1)" stroke="none"/>
    </clipPath>
    <clipPath id="B">
      <path d="M804 2801h204v289H804zm0 0" fill="rgba(0, 0, 0, 1)" stroke="none"/>
    </clipPath>
    <clipPath id="C">
      <path d="M848.16 3089.398a43.526 43.526 0 0 1-21.945-5.937c-21.035-12.133-28.246-39.031-16.102-60.07l115.36-199.801c12.148-21.04 39.07-28.23 60.082-16.102 21.035 12.14 28.234 39.032 16.105 60.07L886.297 3067.36c-8.168 14.13-22.953 22.04-38.137 22.04" clip-rule="evenodd" fill="rgba(0, 0, 0, 1)" stroke="none"/>
    </clipPath>
    <clipPath id="E">
      <path d="M215 2297h289v204H215zm0 0" fill="rgba(0, 0, 0, 1)" stroke="none"/>
    </clipPath>
    <clipPath id="F">
      <path d="M259.488 2500.629c-15.207 0-29.968-7.899-38.148-22.008-12.149-21.043-4.914-47.93 16.097-60.09L437.238 2303.2c21.051-12.09 47.91-4.937 60.082 16.102 12.149 21.027 4.926 47.93-16.097 60.07L281.422 2494.72c-6.91 3.992-14.45 5.91-21.934 5.91" clip-rule="evenodd" fill="rgba(0, 0, 0, 1)" stroke="none"/>
    </clipPath>
    <clipPath id="H">
      <path d="M215 804h289v204H215zm0 0" fill="rgba(0, 0, 0, 1)" stroke="none"/>
    </clipPath>
    <clipPath id="I">
      <path d="M459.238 1007.54c-7.46 0-15.023-1.911-21.933-5.88L237.504 886.31c-21.05-12.16-28.246-39.07-16.102-60.079 12.149-21.05 39.032-28.218 60.082-16.101l199.801 115.34c21.04 12.16 28.25 39.07 16.102 60.09-8.18 14.07-22.969 21.98-38.149 21.98" clip-rule="evenodd" fill="rgba(0, 0, 0, 1)" stroke="none"/>
    </clipPath>
    <clipPath id="K">
      <path d="M804 215h204v289H804zm0 0" fill="rgba(0, 0, 0, 1)" stroke="none"/>
    </clipPath>
    <clipPath id="L">
      <path d="M963.586 503.262c-15.211 0-29.973-7.883-38.14-22L810.09 281.46c-12.149-21.031-4.91-47.941 16.101-60.082 21.024-12.078 47.934-4.91 60.082 16.101l115.348 199.801c12.14 21.02 4.918 47.93-16.105 60.078a43.549 43.549 0 0 1-21.93 5.903" clip-rule="evenodd" fill="rgba(0, 0, 0, 1)" stroke="none"/>
    </clipPath>
  </defs>
  <path d="M2857.809 447.012H447.012V2857.84h2410.797zm0 0" clip-path="url(#b)" fill="rgba(251, 170, 49, 1)" stroke="none"/>
  <path d="M1696.39 686.43H686.419v1009.98h1009.973zm0 0" clip-path="url(#e)" fill="rgba(242, 104, 33, 1)" stroke="none"/>
  <path d="M1696.39 0h-87.949v318.691h87.95zm0 0" clip-path="url(#h)" fill="rgba(244, 121, 32, 1)" stroke="none"/>
  <path d="M2506.879 209.238h-215.82v294.024h215.82zm0 0" clip-path="url(#k)" fill="rgba(243, 114, 33, 1)" stroke="none"/>
  <path d="M3095.621 797.969h-300.293v209.57h300.293zm0 0" clip-path="url(#n)" fill="rgba(243, 112, 33, 1)" stroke="none"/>
  <path d="M3304.82 1608.45h-318.672v87.96h318.672zm0 0" clip-path="url(#q)" fill="rgba(244, 121, 32, 1)" stroke="none"/>
  <path d="M3095.621 2291.059h-300.293v209.57h300.293zm0 0" clip-path="url(#t)" fill="rgba(243, 112, 33, 1)" stroke="none"/>
  <path d="M2506.879 2795.328h-215.82v294.07h215.82zm0 0" clip-path="url(#w)" fill="rgba(243, 114, 33, 1)" stroke="none"/>
  <path d="M1696.39 2986.148h-87.949v318.704h87.95zm0 0" clip-path="url(#z)" fill="rgba(244, 121, 32, 1)" stroke="none"/>
  <path d="M1013.79 2795.36H797.968v294.038h215.82zm0 0" clip-path="url(#C)" fill="rgba(243, 114, 33, 1)" stroke="none"/>
  <path d="M509.469 2291.11H209.19v209.519H509.47zm0 0" clip-path="url(#F)" fill="rgba(243, 112, 33, 1)" stroke="none"/>
  <path fill-rule="evenodd" d="M274.695 1696.41H43.98c-24.292 0-43.98-19.7-43.98-43.98 0-24.309 19.688-43.98 43.98-43.98h230.715c24.297 0 43.985 19.671 43.985 43.98 0 24.28-19.688 43.98-43.985 43.98" fill="rgba(255, 122, 24, 1)" stroke="none"/>
  <path d="M509.535 798.012H209.258v209.527h300.277zm0 0" clip-path="url(#I)" fill="rgba(243, 112, 33, 1)" stroke="none"/>
  <path d="M1013.762 209.3h-215.82v293.962h215.82zm0 0" clip-path="url(#L)" fill="rgba(243, 114, 33, 1)" stroke="none"/>
</svg>
</g></svg></g></g>
<!-- /image 39403 -->
</defs><rect x="0" y="0" width="250" height="250" fill="rgba(238, 229, 92, 1)"></rect><use xlink:href="#transformed-39403" transform="translate(-250, -250)"></use><use xlink:href="#transformed-39403" transform="translate(0, -250)"></use><use xlink:href="#transformed-39403" transform="translate(250, -250)"></use><use xlink:href="#transformed-39403" transform="translate(-250, 0)"></use><use xlink:href="#transformed-39403" transform="translate(0, 0)"></use><use xlink:href="#transformed-39403" transform="translate(250, 0)"></use><use xlink:href="#transformed-39403" transform="translate(-250, 250)"></use><use xlink:href="#transformed-39403" transform="translate(0, 250)"></use><use xlink:href="#transformed-39403" transform="translate(250, 250)"></use></svg>